<?xml version="1.0" encoding="UTF-8" standalone="no"?>
<svg
    xmlns="http://www.w3.org/2000/svg"
    viewBox="0 0 173.08 574.21"
    width="60"
    height="60"
>
  <g transform="translate(-336.88 -143.36)">

    <!-- Main pin body -->
    <path
        d="m408.2 714.03c-35.189-3.573-45.307-42.166-54.281-70.403-21.728-71.925-19.353-150.59 8.8376-220.42 16.772-43.545 38.378-88.874 28.849-136.85-2.3962-39.516-16.314-82.146 1.4204-119.83 17.044-26.405 58.504-27.99 76.714-1.9176 19.432 36.189 2.366 78.176-1.6466 116.17-9.1357 37.648-3.8747 76.675 10.254 112.36 25.88 67.711 38.654 142.46 20.817 213.82-9.3019 35.22-18.208 74.114-45.21 100.26-13.22 8.5605-30.62 8.8407-45.755 6.8136z"
        fill="currentColor"
    />

    <!-- Stripe -->
    <path
        d="m442.49 268.47c-32.119 0.25109-50.588 2.2997-50.591 5.5625-0.004 4.0588 0.88754 31.93 3.695 33.031 2.1502 0.84331-1.5692 1.0786 5.7128-0.28125l51.177-1.9062 5.8555-0.0312c3.2644-0.0245 6.2735-0.61615 6.8314-1.3125 1.0757-1.3426 5.5787-30.94 4.8015-31.562-0.25639-0.20524-2.6034-0.97626-5.2309-1.7188l-4.7625-1.3438c4.1745-0.54949-15.183-0.5013-17.488-0.43755zm19.674 51.094z"
        fill="currentColor"
    />

  </g>
</svg>